<svg width="84" height="84" viewBox="0 0 84 84" fill="none" xmlns="http://www.w3.org/2000/svg">
<g clip-path="url(#clip0)">
<path d="M42 84C65.196 84 84 65.196 84 42C84 18.804 65.196 0 42 0C18.804 0 0 18.804 0 42C0 65.196 18.804 84 42 84Z" fill="#9873B9"/>
<path d="M23.9776 26.4644C23.2341 24.6567 20.6758 25.3299 20.6758 21.3847C20.6758 14.9334 24.9668 9.73165 25.9001 9.16297C28.8413 7.37088 32.1485 5.40019 36.6334 4.66692C43.1245 3.60567 47.0108 4.33611 53.2002 7.70021C59.3896 11.0643 58.1002 13.7669 58.1002 13.7669C60.5945 15.1756 65.7297 23.8705 62.0668 27.5335C56.2335 33.3669 75.8335 51.9214 69.0668 63.0001C67.9916 64.7604 57.8668 58.1715 53.6668 56.2334C47.8036 54.391 44.7836 54.1124 45.3433 50.0884L44.1001 53.6668C44.1001 53.6668 39.9776 61.5105 36.6334 59.0334C29.4811 61.077 31.2774 52.8935 31.144 44.8793L26.4981 32.9002C24.9579 29.1455 23.9776 26.4644 23.9776 26.4644Z" fill="#273D79"/>
<path fill-rule="evenodd" clip-rule="evenodd" d="M16.4902 75.368C16.5745 72.2862 17.0997 68.4516 20.0671 65.1C21.6311 63.3336 25.1265 61.9136 28.915 60.3745C31.1644 59.4603 33.5172 58.5046 35.6305 57.4093L47.8216 54.1333C47.9942 54.1846 48.1692 54.2369 48.347 54.2901C56.2822 56.6589 69.2985 60.5448 74.2363 65.1C74.8934 65.7062 75.4048 66.3222 75.7945 66.9438C68.1444 77.2907 55.8562 84 42.0004 84C32.4056 84 23.5622 80.7828 16.4902 75.368Z" fill="#EF6C57"/>
<path d="M50.6336 55.0666C49.9046 53.3231 49.5374 41.5028 49.2336 38.2666L40.8881 44.9885C42.3912 56.8063 38.8008 56.8521 38.8008 58.3333L38.8008 67.1528C45.4688 67.1528 51.1254 56.2426 50.6336 55.0666Z" fill="#FBA68B"/>
<path d="M26.4861 43.5614C24.2168 38.4553 21.2527 38.3263 21.9913 36.4852C22.6219 34.9133 26.5168 31.7979 24.231 27.2261C23.723 26.2102 24.231 24.4999 24.231 24.4999C24.231 24.4999 28.4977 19.9175 36.3995 18.1999C41.7661 17.0333 44.5624 18.1132 45.8058 23.3116C47.0493 28.51 52.2662 30.0999 52.2662 30.0999C52.8855 29.3694 53.9233 26.568 55.9459 28.848C57.9684 31.128 53.592 34.3085 51.2344 36.6263C50.4877 37.877 48.5655 39.4964 47.348 42.0431C45.826 45.2265 36.7139 48.3354 32.2083 49.1511C28.01 49.9113 27.502 45.8473 26.4861 43.5614Z" fill="#FFB198"/>
</g>
<defs>
<clipPath id="clip0">
<rect width="84" height="84" fill="white"/>
</clipPath>
</defs>
</svg>
