<svg width="294" height="37" viewBox="0 0 294 37" fill="none" xmlns="http://www.w3.org/2000/svg">
<rect width="294" height="37" rx="18.5" fill="#ECF2F5"/>
<path d="M29.516 18.812C29.516 17.996 29.7 17.264 30.068 16.616C30.436 15.96 30.936 15.448 31.568 15.08C32.208 14.712 32.916 14.528 33.692 14.528C34.604 14.528 35.4 14.748 36.08 15.188C36.76 15.628 37.256 16.252 37.568 17.06H36.26C36.028 16.556 35.692 16.168 35.252 15.896C34.82 15.624 34.3 15.488 33.692 15.488C33.108 15.488 32.584 15.624 32.12 15.896C31.656 16.168 31.292 16.556 31.028 17.06C30.764 17.556 30.632 18.14 30.632 18.812C30.632 19.476 30.764 20.06 31.028 20.564C31.292 21.06 31.656 21.444 32.12 21.716C32.584 21.988 33.108 22.124 33.692 22.124C34.3 22.124 34.82 21.992 35.252 21.728C35.692 21.456 36.028 21.068 36.26 20.564H37.568C37.256 21.364 36.76 21.984 36.08 22.424C35.4 22.856 34.604 23.072 33.692 23.072C32.916 23.072 32.208 22.892 31.568 22.532C30.936 22.164 30.436 21.656 30.068 21.008C29.7 20.36 29.516 19.628 29.516 18.812ZM38.7855 19.688C38.7855 19.016 38.9215 18.428 39.1935 17.924C39.4655 17.412 39.8375 17.016 40.3095 16.736C40.7895 16.456 41.3215 16.316 41.9055 16.316C42.4815 16.316 42.9815 16.44 43.4055 16.688C43.8295 16.936 44.1455 17.248 44.3535 17.624V16.424H45.4575V23H44.3535V21.776C44.1375 22.16 43.8135 22.48 43.3815 22.736C42.9575 22.984 42.4615 23.108 41.8935 23.108C41.3095 23.108 40.7815 22.964 40.3095 22.676C39.8375 22.388 39.4655 21.984 39.1935 21.464C38.9215 20.944 38.7855 20.352 38.7855 19.688ZM44.3535 19.7C44.3535 19.204 44.2535 18.772 44.0535 18.404C43.8535 18.036 43.5815 17.756 43.2375 17.564C42.9015 17.364 42.5295 17.264 42.1215 17.264C41.7135 17.264 41.3415 17.36 41.0055 17.552C40.6695 17.744 40.4015 18.024 40.2015 18.392C40.0015 18.76 39.9015 19.192 39.9015 19.688C39.9015 20.192 40.0015 20.632 40.2015 21.008C40.4015 21.376 40.6695 21.66 41.0055 21.86C41.3415 22.052 41.7135 22.148 42.1215 22.148C42.5295 22.148 42.9015 22.052 43.2375 21.86C43.5815 21.66 43.8535 21.376 44.0535 21.008C44.2535 20.632 44.3535 20.196 44.3535 19.7ZM48.3949 17.492C48.5869 17.116 48.8589 16.824 49.2109 16.616C49.5709 16.408 50.0069 16.304 50.5189 16.304V17.432H50.2309C49.0069 17.432 48.3949 18.096 48.3949 19.424V23H47.3029V16.424H48.3949V17.492ZM52.3435 15.356C52.1355 15.356 51.9595 15.284 51.8155 15.14C51.6715 14.996 51.5995 14.82 51.5995 14.612C51.5995 14.404 51.6715 14.228 51.8155 14.084C51.9595 13.94 52.1355 13.868 52.3435 13.868C52.5435 13.868 52.7115 13.94 52.8475 14.084C52.9915 14.228 53.0635 14.404 53.0635 14.612C53.0635 14.82 52.9915 14.996 52.8475 15.14C52.7115 15.284 52.5435 15.356 52.3435 15.356ZM52.8715 16.424V23H51.7795V16.424H52.8715ZM55.0806 23.072C54.8726 23.072 54.6966 23 54.5526 22.856C54.4086 22.712 54.3366 22.536 54.3366 22.328C54.3366 22.12 54.4086 21.944 54.5526 21.8C54.6966 21.656 54.8726 21.584 55.0806 21.584C55.2806 21.584 55.4486 21.656 55.5846 21.8C55.7286 21.944 55.8006 22.12 55.8006 22.328C55.8006 22.536 55.7286 22.712 55.5846 22.856C55.4486 23 55.2806 23.072 55.0806 23.072ZM57.6001 23.072C57.3921 23.072 57.2161 23 57.0721 22.856C56.9281 22.712 56.8561 22.536 56.8561 22.328C56.8561 22.12 56.9281 21.944 57.0721 21.8C57.2161 21.656 57.3921 21.584 57.6001 21.584C57.8001 21.584 57.9681 21.656 58.1041 21.8C58.2481 21.944 58.3201 22.12 58.3201 22.328C58.3201 22.536 58.2481 22.712 58.1041 22.856C57.9681 23 57.8001 23.072 57.6001 23.072ZM60.1197 23.072C59.9117 23.072 59.7357 23 59.5917 22.856C59.4477 22.712 59.3757 22.536 59.3757 22.328C59.3757 22.12 59.4477 21.944 59.5917 21.8C59.7357 21.656 59.9117 21.584 60.1197 21.584C60.3197 21.584 60.4877 21.656 60.6237 21.8C60.7677 21.944 60.8397 22.12 60.8397 22.328C60.8397 22.536 60.7677 22.712 60.6237 22.856C60.4877 23 60.3197 23.072 60.1197 23.072Z" fill="#676767"/>
<path d="M14.7917 23.4583C17.9213 23.4583 20.4583 20.9213 20.4583 17.7917C20.4583 14.6621 17.9213 12.125 14.7917 12.125C11.6621 12.125 9.125 14.6621 9.125 17.7917C9.125 20.9213 11.6621 23.4583 14.7917 23.4583Z" stroke="#556FB5" stroke-width="1.5" stroke-linecap="round" stroke-linejoin="round"/>
<path d="M21.8752 24.875L18.7939 21.7938" stroke="#556FB5" stroke-width="1.5" stroke-linecap="round" stroke-linejoin="round"/>
</svg>
