<svg width="40" height="38" viewBox="0 0 40 38" fill="none" xmlns="http://www.w3.org/2000/svg">
<rect y="1" width="37" height="37" rx="18.5" fill="#ECF2F5"/>
<path d="M14.25 13.4167L12.125 16.25V26.1667C12.125 26.5424 12.2743 26.9027 12.5399 27.1684C12.8056 27.4341 13.1659 27.5833 13.5417 27.5833H23.4583C23.8341 27.5833 24.1944 27.4341 24.4601 27.1684C24.7257 26.9027 24.875 26.5424 24.875 26.1667V16.25L22.75 13.4167H14.25Z" stroke="#556FB5" stroke-width="1.5" stroke-linecap="round" stroke-linejoin="round"/>
<path d="M12.125 16.25H24.875" stroke="#556FB5" stroke-width="1.5" stroke-linecap="round" stroke-linejoin="round"/>
<path d="M21.3337 19.0833C21.3337 19.8348 21.0351 20.5555 20.5038 21.0868C19.9724 21.6182 19.2518 21.9167 18.5003 21.9167C17.7489 21.9167 17.0282 21.6182 16.4969 21.0868C15.9655 20.5555 15.667 19.8348 15.667 19.0833" stroke="#556FB5" stroke-width="1.5" stroke-linecap="round" stroke-linejoin="round"/>
<rect x="25" width="15" height="15" rx="7.5" fill="#FD8070"/>
<path d="M31.23 9.45C31.87 8.89667 32.3733 8.44333 32.74 8.09C33.1133 7.73 33.4233 7.35667 33.67 6.97C33.9167 6.58333 34.04 6.19667 34.04 5.81C34.04 5.41 33.9433 5.09667 33.75 4.87C33.5633 4.64333 33.2667 4.53 32.86 4.53C32.4667 4.53 32.16 4.65667 31.94 4.91C31.7267 5.15667 31.6133 5.49 31.6 5.91H30.5C30.52 5.15 30.7467 4.57 31.18 4.17C31.62 3.76333 32.1767 3.56 32.85 3.56C33.5767 3.56 34.1433 3.76 34.55 4.16C34.9633 4.56 35.17 5.09333 35.17 5.76C35.17 6.24 35.0467 6.70333 34.8 7.15C34.56 7.59 34.27 7.98667 33.93 8.34C33.5967 8.68667 33.17 9.09 32.65 9.55L32.2 9.95H35.37V10.9H30.51V10.07L31.23 9.45Z" fill="white"/>
</svg>
