<svg width="37" height="37" viewBox="0 0 37 37" fill="none" xmlns="http://www.w3.org/2000/svg">
<rect width="37" height="37" rx="18.5" fill="#ECF2F5"/>
<path d="M24.1663 24.875V23.4583C24.1663 22.7069 23.8678 21.9862 23.3365 21.4549C22.8051 20.9235 22.0845 20.625 21.333 20.625H15.6663C14.9149 20.625 14.1942 20.9235 13.6629 21.4549C13.1315 21.9862 12.833 22.7069 12.833 23.4583V24.875" stroke="#556FB5" stroke-width="1.5" stroke-linecap="round" stroke-linejoin="round"/>
<path d="M18.5003 17.7917C20.0651 17.7917 21.3337 16.5231 21.3337 14.9583C21.3337 13.3935 20.0651 12.125 18.5003 12.125C16.9355 12.125 15.667 13.3935 15.667 14.9583C15.667 16.5231 16.9355 17.7917 18.5003 17.7917Z" stroke="#556FB5" stroke-width="1.5" stroke-linecap="round" stroke-linejoin="round"/>
</svg>
