<svg width="17" height="17" viewBox="0 0 17 17" fill="none" xmlns="http://www.w3.org/2000/svg">
<path d="M4.25 1.41666L2.125 4.24999V14.1667C2.125 14.5424 2.27426 14.9027 2.53993 15.1684C2.80561 15.4341 3.16594 15.5833 3.54167 15.5833H13.4583C13.8341 15.5833 14.1944 15.4341 14.4601 15.1684C14.7257 14.9027 14.875 14.5424 14.875 14.1667V4.24999L12.75 1.41666H4.25Z" stroke="#556FB5" stroke-width="1.5" stroke-linecap="round" stroke-linejoin="round"/>
<path d="M2.125 4.25H14.875" stroke="#556FB5" stroke-width="1.5" stroke-linecap="round" stroke-linejoin="round"/>
<path d="M11.3337 7.08334C11.3337 7.83479 11.0351 8.55546 10.5038 9.08681C9.97244 9.61817 9.25177 9.91668 8.50033 9.91668C7.74888 9.91668 7.02821 9.61817 6.49686 9.08681C5.9655 8.55546 5.66699 7.83479 5.66699 7.08334" stroke="#556FB5" stroke-width="1.5" stroke-linecap="round" stroke-linejoin="round"/>
</svg>
