<svg width="374" height="107" viewBox="0 0 374 107" fill="none" xmlns="http://www.w3.org/2000/svg">
<rect x="26.7139" y="34.6176" width="320.571" height="37.7647" fill="#556FB5"/>
<mask id="path-2-outside-1" maskUnits="userSpaceOnUse" x="0.0742188" y="17.7153" width="374" height="89" fill="black">
<rect fill="white" x="0.0742188" y="17.7153" width="374" height="89"/>
<path d="M29.2285 75.97C24.4514 75.97 20.5542 74.942 17.5371 72.8859C14.5618 70.7878 13.0742 67.8296 13.0742 64.0112C13.0742 63.6335 13.1161 63.0671 13.1999 62.3118H24.3885C24.2628 63.9063 24.6399 65.1651 25.5199 66.0882C26.3999 67.0114 27.7409 67.4729 29.5428 67.4729C31.1771 67.4729 32.4552 67.1163 33.3771 66.4029C34.3409 65.6896 34.8228 64.6826 34.8228 63.3818C34.8228 62.039 34.2152 60.948 32.9999 60.1088C31.8266 59.2696 29.9828 58.3255 27.4685 57.2765C25.038 56.2694 23.0476 55.3253 21.4971 54.4441C19.9885 53.521 18.6685 52.2831 17.5371 50.7306C16.4056 49.178 15.8399 47.2269 15.8399 44.8771C15.798 41.9818 16.5104 39.4641 17.9771 37.3241C19.4437 35.1841 21.4761 33.5477 24.0742 32.4147C26.6723 31.2818 29.6476 30.7153 32.9999 30.7153C36.0171 30.7153 38.699 31.1979 41.0456 32.1629C43.3923 33.0861 45.2152 34.4498 46.5142 36.2541C47.8133 38.0165 48.4628 40.1145 48.4628 42.5482C48.4628 43.1777 48.4418 43.6392 48.3999 43.9329H36.9599C37.0018 43.7651 37.0228 43.5133 37.0228 43.1777C37.0228 42.0028 36.6037 41.0586 35.7656 40.3453C34.9695 39.59 33.859 39.2124 32.4342 39.2124C30.9256 39.2124 29.6895 39.59 28.7256 40.3453C27.8037 41.0586 27.3428 42.0447 27.3428 43.3035C27.3428 44.5624 27.9295 45.6324 29.1028 46.5135C30.2761 47.3528 32.099 48.3388 34.5714 49.4718C37.0437 50.6047 39.0552 51.6537 40.6056 52.6188C42.198 53.5839 43.5599 54.8847 44.6914 56.5212C45.8228 58.1157 46.3885 60.0878 46.3885 62.4377C46.3885 65.0392 45.6971 67.368 44.3142 69.4241C42.9314 71.4802 40.9409 73.0957 38.3428 74.2706C35.7447 75.4035 32.7066 75.97 29.2285 75.97Z"/>
<path d="M68.8329 63.4447C68.791 63.6545 68.7701 63.9273 68.7701 64.2629C68.7701 65.0182 68.9796 65.5637 69.3986 65.8994C69.8596 66.2351 70.5929 66.4029 71.5986 66.4029H75.4329L73.7986 75.5294H68.3301C61.2901 75.5294 57.7701 72.5712 57.7701 66.6547C57.7701 65.7735 57.8748 64.6616 58.0844 63.3188L60.5986 49.3459H56.3244L57.8958 40.4082H62.1701L63.6786 31.8482H74.4272L72.9186 40.4082H79.9586L78.3872 49.3459H71.3472L68.8329 63.4447Z"/>
<path d="M99.2715 76.0329C96.2544 76.0329 93.5724 75.4245 91.2258 74.2077C88.8791 72.9908 87.0563 71.2704 85.7572 69.0465C84.5001 66.8226 83.8715 64.242 83.8715 61.3047C83.8715 57.3184 84.8144 53.6888 86.7001 50.4159C88.5858 47.1429 91.1839 44.5833 94.4944 42.7371C97.8048 40.8488 101.492 39.9047 105.557 39.9047C108.574 39.9047 111.256 40.5341 113.603 41.7929C115.992 43.0098 117.835 44.7302 119.134 46.9541C120.433 49.178 121.083 51.7586 121.083 54.6959C121.083 58.7241 120.119 62.3747 118.191 65.6477C116.306 68.8786 113.687 71.4173 110.334 73.2635C107.024 75.1098 103.336 76.0329 99.2715 76.0329ZM100.78 66.7806C102.54 66.7806 104.111 66.2561 105.494 65.2071C106.919 64.1161 108.009 62.7314 108.763 61.0529C109.559 59.3326 109.957 57.5492 109.957 55.7029C109.957 53.6049 109.391 51.9894 108.26 50.8565C107.129 49.7235 105.704 49.1571 103.986 49.1571C102.184 49.1571 100.591 49.7026 99.2086 50.7935C97.8677 51.8426 96.8201 53.2273 96.0658 54.9477C95.3115 56.668 94.9344 58.4724 94.9344 60.3606C94.9344 62.4167 95.4791 64.0112 96.5686 65.1441C97.6582 66.2351 99.062 66.7806 100.78 66.7806Z"/>
<path d="M142.5 46.7653C144.134 44.6673 145.999 43.0308 148.094 41.8559C150.231 40.639 152.452 40.0306 154.757 40.0306L152.745 51.4229H149.791C147.109 51.4229 144.993 52.0104 143.442 53.1853C141.892 54.3182 140.865 56.3324 140.362 59.2277L137.471 75.5294H126.722L132.882 40.4082H143.631L142.5 46.7653Z"/>
<path d="M178.94 39.9047C183.466 39.9047 187.049 41.1426 189.689 43.6182C192.37 46.052 193.711 49.3878 193.711 53.6259C193.711 55.0106 193.607 56.2484 193.397 57.3394C193.23 58.3045 192.978 59.3326 192.643 60.4235H168.317C168.275 60.6753 168.254 61.0739 168.254 61.6194C168.254 63.4657 168.757 64.8714 169.763 65.8365C170.769 66.8016 172.11 67.2841 173.786 67.2841C176.468 67.2841 178.521 66.1512 179.946 63.8853H191.386C189.877 67.452 187.426 70.3682 184.031 72.6341C180.637 74.9 176.824 76.0329 172.591 76.0329C168.066 76.0329 164.441 74.7741 161.717 72.2565C159.035 69.7388 157.694 66.319 157.694 61.9971C157.694 60.6963 157.82 59.3535 158.071 57.9688C158.7 54.3182 159.999 51.1292 161.969 48.4018C163.938 45.6743 166.389 43.5763 169.323 42.1077C172.256 40.639 175.462 39.9047 178.94 39.9047ZM182.837 54.9477C182.921 54.3602 182.963 53.9616 182.963 53.7518C182.963 52.0733 182.439 50.7935 181.391 49.9124C180.344 48.9892 178.961 48.5277 177.243 48.5277C175.399 48.5277 173.765 49.0941 172.34 50.2271C170.957 51.318 169.951 52.8916 169.323 54.9477H182.837Z"/>
<path d="M211.45 67.3471H225.53L224.085 75.5294H199.256L207.05 31.3447H217.799L211.45 67.3471Z"/>
<path d="M248.697 76.0329C245.68 76.0329 242.998 75.4245 240.651 74.2077C238.305 72.9908 236.482 71.2704 235.183 69.0465C233.926 66.8226 233.297 64.242 233.297 61.3047C233.297 57.3184 234.24 53.6888 236.126 50.4159C238.011 47.1429 240.61 44.5833 243.92 42.7371C247.23 40.8488 250.918 39.9047 254.983 39.9047C258 39.9047 260.682 40.5341 263.029 41.7929C265.417 43.0098 267.261 44.7302 268.56 46.9541C269.859 49.178 270.509 51.7586 270.509 54.6959C270.509 58.7241 269.545 62.3747 267.617 65.6477C265.731 68.8786 263.112 71.4173 259.76 73.2635C256.45 75.1098 252.762 76.0329 248.697 76.0329ZM250.206 66.7806C251.966 66.7806 253.537 66.2561 254.92 65.2071C256.345 64.1161 257.434 62.7314 258.189 61.0529C258.985 59.3326 259.383 57.5492 259.383 55.7029C259.383 53.6049 258.817 51.9894 257.686 50.8565C256.554 49.7235 255.13 49.1571 253.411 49.1571C251.61 49.1571 250.017 49.7026 248.634 50.7935C247.293 51.8426 246.246 53.2273 245.491 54.9477C244.737 56.668 244.36 58.4724 244.36 60.3606C244.36 62.4167 244.905 64.0112 245.994 65.1441C247.084 66.2351 248.488 66.7806 250.206 66.7806Z"/>
<path d="M295.759 39.9047C298.232 39.9047 300.327 40.4082 302.045 41.4153C303.763 42.4224 304.958 43.7441 305.628 45.3806L306.508 40.4082H317.257L311.097 75.4665C310.51 78.6975 309.337 81.6137 307.577 84.2153C305.859 86.8588 303.533 88.9569 300.599 90.5094C297.708 92.062 294.335 92.8382 290.479 92.8382C285.283 92.8382 281.281 91.6004 278.474 89.1247C275.666 86.691 274.409 83.3761 274.702 79.18H285.325C285.451 80.5228 286.059 81.5718 287.148 82.3271C288.279 83.1243 289.767 83.5229 291.611 83.5229C293.832 83.5229 295.718 82.8726 297.268 81.5718C298.819 80.3129 299.845 78.2779 300.348 75.4665L301.228 70.4941C299.887 72.1306 298.19 73.4733 296.137 74.5224C294.125 75.5294 291.883 76.0329 289.411 76.0329C286.939 76.0329 284.739 75.4665 282.811 74.3335C280.925 73.2006 279.438 71.5851 278.348 69.4871C277.3 67.389 276.777 64.9343 276.777 62.1229C276.777 60.8222 276.902 59.4165 277.154 57.9059C277.782 54.2973 279.019 51.1292 280.862 48.4018C282.706 45.6743 284.927 43.5763 287.525 42.1077C290.123 40.639 292.868 39.9047 295.759 39.9047ZM303.428 57.9688C303.554 57.2135 303.617 56.5212 303.617 55.8918C303.617 53.8357 303.009 52.2202 301.794 51.0453C300.62 49.8704 299.112 49.2829 297.268 49.2829C295.131 49.2829 293.182 50.0592 291.422 51.6118C289.662 53.1224 288.552 55.2204 288.091 57.9059C287.965 58.6612 287.902 59.3535 287.902 59.9829C287.902 62.039 288.489 63.6755 289.662 64.8924C290.878 66.0673 292.386 66.6547 294.188 66.6547C296.325 66.6547 298.274 65.8784 300.034 64.3259C301.794 62.7733 302.925 60.6543 303.428 57.9688Z"/>
<path d="M338.296 76.0329C335.278 76.0329 332.597 75.4245 330.25 74.2077C327.903 72.9908 326.08 71.2704 324.781 69.0465C323.524 66.8226 322.896 64.242 322.896 61.3047C322.896 57.3184 323.838 53.6888 325.724 50.4159C327.61 47.1429 330.208 44.5833 333.518 42.7371C336.829 40.8488 340.517 39.9047 344.581 39.9047C347.598 39.9047 350.28 40.5341 352.627 41.7929C355.016 43.0098 356.859 44.7302 358.158 46.9541C359.458 49.178 360.107 51.7586 360.107 54.6959C360.107 58.7241 359.143 62.3747 357.216 65.6477C355.33 68.8786 352.711 71.4173 349.358 73.2635C346.048 75.1098 342.36 76.0329 338.296 76.0329ZM339.804 66.7806C341.564 66.7806 343.136 66.2561 344.518 65.2071C345.943 64.1161 347.033 62.7314 347.787 61.0529C348.583 59.3326 348.981 57.5492 348.981 55.7029C348.981 53.6049 348.416 51.9894 347.284 50.8565C346.153 49.7235 344.728 49.1571 343.01 49.1571C341.208 49.1571 339.616 49.7026 338.233 50.7935C336.892 51.8426 335.844 53.2273 335.09 54.9477C334.336 56.668 333.958 58.4724 333.958 60.3606C333.958 62.4167 334.503 64.0112 335.593 65.1441C336.682 66.2351 338.086 66.7806 339.804 66.7806Z"/>
</mask>
<path d="M29.2285 75.97C24.4514 75.97 20.5542 74.942 17.5371 72.8859C14.5618 70.7878 13.0742 67.8296 13.0742 64.0112C13.0742 63.6335 13.1161 63.0671 13.1999 62.3118H24.3885C24.2628 63.9063 24.6399 65.1651 25.5199 66.0882C26.3999 67.0114 27.7409 67.4729 29.5428 67.4729C31.1771 67.4729 32.4552 67.1163 33.3771 66.4029C34.3409 65.6896 34.8228 64.6826 34.8228 63.3818C34.8228 62.039 34.2152 60.948 32.9999 60.1088C31.8266 59.2696 29.9828 58.3255 27.4685 57.2765C25.038 56.2694 23.0476 55.3253 21.4971 54.4441C19.9885 53.521 18.6685 52.2831 17.5371 50.7306C16.4056 49.178 15.8399 47.2269 15.8399 44.8771C15.798 41.9818 16.5104 39.4641 17.9771 37.3241C19.4437 35.1841 21.4761 33.5477 24.0742 32.4147C26.6723 31.2818 29.6476 30.7153 32.9999 30.7153C36.0171 30.7153 38.699 31.1979 41.0456 32.1629C43.3923 33.0861 45.2152 34.4498 46.5142 36.2541C47.8133 38.0165 48.4628 40.1145 48.4628 42.5482C48.4628 43.1777 48.4418 43.6392 48.3999 43.9329H36.9599C37.0018 43.7651 37.0228 43.5133 37.0228 43.1777C37.0228 42.0028 36.6037 41.0586 35.7656 40.3453C34.9695 39.59 33.859 39.2124 32.4342 39.2124C30.9256 39.2124 29.6895 39.59 28.7256 40.3453C27.8037 41.0586 27.3428 42.0447 27.3428 43.3035C27.3428 44.5624 27.9295 45.6324 29.1028 46.5135C30.2761 47.3528 32.099 48.3388 34.5714 49.4718C37.0437 50.6047 39.0552 51.6537 40.6056 52.6188C42.198 53.5839 43.5599 54.8847 44.6914 56.5212C45.8228 58.1157 46.3885 60.0878 46.3885 62.4377C46.3885 65.0392 45.6971 67.368 44.3142 69.4241C42.9314 71.4802 40.9409 73.0957 38.3428 74.2706C35.7447 75.4035 32.7066 75.97 29.2285 75.97Z" fill="#FBFBFB"/>
<path d="M68.8329 63.4447C68.791 63.6545 68.7701 63.9273 68.7701 64.2629C68.7701 65.0182 68.9796 65.5637 69.3986 65.8994C69.8596 66.2351 70.5929 66.4029 71.5986 66.4029H75.4329L73.7986 75.5294H68.3301C61.2901 75.5294 57.7701 72.5712 57.7701 66.6547C57.7701 65.7735 57.8748 64.6616 58.0844 63.3188L60.5986 49.3459H56.3244L57.8958 40.4082H62.1701L63.6786 31.8482H74.4272L72.9186 40.4082H79.9586L78.3872 49.3459H71.3472L68.8329 63.4447Z" fill="#FBFBFB"/>
<path d="M99.2715 76.0329C96.2544 76.0329 93.5724 75.4245 91.2258 74.2077C88.8791 72.9908 87.0563 71.2704 85.7572 69.0465C84.5001 66.8226 83.8715 64.242 83.8715 61.3047C83.8715 57.3184 84.8144 53.6888 86.7001 50.4159C88.5858 47.1429 91.1839 44.5833 94.4944 42.7371C97.8048 40.8488 101.492 39.9047 105.557 39.9047C108.574 39.9047 111.256 40.5341 113.603 41.7929C115.992 43.0098 117.835 44.7302 119.134 46.9541C120.433 49.178 121.083 51.7586 121.083 54.6959C121.083 58.7241 120.119 62.3747 118.191 65.6477C116.306 68.8786 113.687 71.4173 110.334 73.2635C107.024 75.1098 103.336 76.0329 99.2715 76.0329ZM100.78 66.7806C102.54 66.7806 104.111 66.2561 105.494 65.2071C106.919 64.1161 108.009 62.7314 108.763 61.0529C109.559 59.3326 109.957 57.5492 109.957 55.7029C109.957 53.6049 109.391 51.9894 108.26 50.8565C107.129 49.7235 105.704 49.1571 103.986 49.1571C102.184 49.1571 100.591 49.7026 99.2086 50.7935C97.8677 51.8426 96.8201 53.2273 96.0658 54.9477C95.3115 56.668 94.9344 58.4724 94.9344 60.3606C94.9344 62.4167 95.4791 64.0112 96.5686 65.1441C97.6582 66.2351 99.062 66.7806 100.78 66.7806Z" fill="#FBFBFB"/>
<path d="M142.5 46.7653C144.134 44.6673 145.999 43.0308 148.094 41.8559C150.231 40.639 152.452 40.0306 154.757 40.0306L152.745 51.4229H149.791C147.109 51.4229 144.993 52.0104 143.442 53.1853C141.892 54.3182 140.865 56.3324 140.362 59.2277L137.471 75.5294H126.722L132.882 40.4082H143.631L142.5 46.7653Z" fill="#FBFBFB"/>
<path d="M178.94 39.9047C183.466 39.9047 187.049 41.1426 189.689 43.6182C192.37 46.052 193.711 49.3878 193.711 53.6259C193.711 55.0106 193.607 56.2484 193.397 57.3394C193.23 58.3045 192.978 59.3326 192.643 60.4235H168.317C168.275 60.6753 168.254 61.0739 168.254 61.6194C168.254 63.4657 168.757 64.8714 169.763 65.8365C170.769 66.8016 172.11 67.2841 173.786 67.2841C176.468 67.2841 178.521 66.1512 179.946 63.8853H191.386C189.877 67.452 187.426 70.3682 184.031 72.6341C180.637 74.9 176.824 76.0329 172.591 76.0329C168.066 76.0329 164.441 74.7741 161.717 72.2565C159.035 69.7388 157.694 66.319 157.694 61.9971C157.694 60.6963 157.82 59.3535 158.071 57.9688C158.7 54.3182 159.999 51.1292 161.969 48.4018C163.938 45.6743 166.389 43.5763 169.323 42.1077C172.256 40.639 175.462 39.9047 178.94 39.9047ZM182.837 54.9477C182.921 54.3602 182.963 53.9616 182.963 53.7518C182.963 52.0733 182.439 50.7935 181.391 49.9124C180.344 48.9892 178.961 48.5277 177.243 48.5277C175.399 48.5277 173.765 49.0941 172.34 50.2271C170.957 51.318 169.951 52.8916 169.323 54.9477H182.837Z" fill="#FBFBFB"/>
<path d="M211.45 67.3471H225.53L224.085 75.5294H199.256L207.05 31.3447H217.799L211.45 67.3471Z" fill="#FBFBFB"/>
<path d="M248.697 76.0329C245.68 76.0329 242.998 75.4245 240.651 74.2077C238.305 72.9908 236.482 71.2704 235.183 69.0465C233.926 66.8226 233.297 64.242 233.297 61.3047C233.297 57.3184 234.24 53.6888 236.126 50.4159C238.011 47.1429 240.61 44.5833 243.92 42.7371C247.23 40.8488 250.918 39.9047 254.983 39.9047C258 39.9047 260.682 40.5341 263.029 41.7929C265.417 43.0098 267.261 44.7302 268.56 46.9541C269.859 49.178 270.509 51.7586 270.509 54.6959C270.509 58.7241 269.545 62.3747 267.617 65.6477C265.731 68.8786 263.112 71.4173 259.76 73.2635C256.45 75.1098 252.762 76.0329 248.697 76.0329ZM250.206 66.7806C251.966 66.7806 253.537 66.2561 254.92 65.2071C256.345 64.1161 257.434 62.7314 258.189 61.0529C258.985 59.3326 259.383 57.5492 259.383 55.7029C259.383 53.6049 258.817 51.9894 257.686 50.8565C256.554 49.7235 255.13 49.1571 253.411 49.1571C251.61 49.1571 250.017 49.7026 248.634 50.7935C247.293 51.8426 246.246 53.2273 245.491 54.9477C244.737 56.668 244.36 58.4724 244.36 60.3606C244.36 62.4167 244.905 64.0112 245.994 65.1441C247.084 66.2351 248.488 66.7806 250.206 66.7806Z" fill="#FBFBFB"/>
<path d="M295.759 39.9047C298.232 39.9047 300.327 40.4082 302.045 41.4153C303.763 42.4224 304.958 43.7441 305.628 45.3806L306.508 40.4082H317.257L311.097 75.4665C310.51 78.6975 309.337 81.6137 307.577 84.2153C305.859 86.8588 303.533 88.9569 300.599 90.5094C297.708 92.062 294.335 92.8382 290.479 92.8382C285.283 92.8382 281.281 91.6004 278.474 89.1247C275.666 86.691 274.409 83.3761 274.702 79.18H285.325C285.451 80.5228 286.059 81.5718 287.148 82.3271C288.279 83.1243 289.767 83.5229 291.611 83.5229C293.832 83.5229 295.718 82.8726 297.268 81.5718C298.819 80.3129 299.845 78.2779 300.348 75.4665L301.228 70.4941C299.887 72.1306 298.19 73.4733 296.137 74.5224C294.125 75.5294 291.883 76.0329 289.411 76.0329C286.939 76.0329 284.739 75.4665 282.811 74.3335C280.925 73.2006 279.438 71.5851 278.348 69.4871C277.3 67.389 276.777 64.9343 276.777 62.1229C276.777 60.8222 276.902 59.4165 277.154 57.9059C277.782 54.2973 279.019 51.1292 280.862 48.4018C282.706 45.6743 284.927 43.5763 287.525 42.1077C290.123 40.639 292.868 39.9047 295.759 39.9047ZM303.428 57.9688C303.554 57.2135 303.617 56.5212 303.617 55.8918C303.617 53.8357 303.009 52.2202 301.794 51.0453C300.62 49.8704 299.112 49.2829 297.268 49.2829C295.131 49.2829 293.182 50.0592 291.422 51.6118C289.662 53.1224 288.552 55.2204 288.091 57.9059C287.965 58.6612 287.902 59.3535 287.902 59.9829C287.902 62.039 288.489 63.6755 289.662 64.8924C290.878 66.0673 292.386 66.6547 294.188 66.6547C296.325 66.6547 298.274 65.8784 300.034 64.3259C301.794 62.7733 302.925 60.6543 303.428 57.9688Z" fill="#FBFBFB"/>
<path d="M338.296 76.0329C335.278 76.0329 332.597 75.4245 330.25 74.2077C327.903 72.9908 326.08 71.2704 324.781 69.0465C323.524 66.8226 322.896 64.242 322.896 61.3047C322.896 57.3184 323.838 53.6888 325.724 50.4159C327.61 47.1429 330.208 44.5833 333.518 42.7371C336.829 40.8488 340.517 39.9047 344.581 39.9047C347.598 39.9047 350.28 40.5341 352.627 41.7929C355.016 43.0098 356.859 44.7302 358.158 46.9541C359.458 49.178 360.107 51.7586 360.107 54.6959C360.107 58.7241 359.143 62.3747 357.216 65.6477C355.33 68.8786 352.711 71.4173 349.358 73.2635C346.048 75.1098 342.36 76.0329 338.296 76.0329ZM339.804 66.7806C341.564 66.7806 343.136 66.2561 344.518 65.2071C345.943 64.1161 347.033 62.7314 347.787 61.0529C348.583 59.3326 348.981 57.5492 348.981 55.7029C348.981 53.6049 348.416 51.9894 347.284 50.8565C346.153 49.7235 344.728 49.1571 343.01 49.1571C341.208 49.1571 339.616 49.7026 338.233 50.7935C336.892 51.8426 335.844 53.2273 335.09 54.9477C334.336 56.668 333.958 58.4724 333.958 60.3606C333.958 62.4167 334.503 64.0112 335.593 65.1441C336.682 66.2351 338.086 66.7806 339.804 66.7806Z" fill="#FBFBFB"/>
<path d="M29.2285 75.97C24.4514 75.97 20.5542 74.942 17.5371 72.8859C14.5618 70.7878 13.0742 67.8296 13.0742 64.0112C13.0742 63.6335 13.1161 63.0671 13.1999 62.3118H24.3885C24.2628 63.9063 24.6399 65.1651 25.5199 66.0882C26.3999 67.0114 27.7409 67.4729 29.5428 67.4729C31.1771 67.4729 32.4552 67.1163 33.3771 66.4029C34.3409 65.6896 34.8228 64.6826 34.8228 63.3818C34.8228 62.039 34.2152 60.948 32.9999 60.1088C31.8266 59.2696 29.9828 58.3255 27.4685 57.2765C25.038 56.2694 23.0476 55.3253 21.4971 54.4441C19.9885 53.521 18.6685 52.2831 17.5371 50.7306C16.4056 49.178 15.8399 47.2269 15.8399 44.8771C15.798 41.9818 16.5104 39.4641 17.9771 37.3241C19.4437 35.1841 21.4761 33.5477 24.0742 32.4147C26.6723 31.2818 29.6476 30.7153 32.9999 30.7153C36.0171 30.7153 38.699 31.1979 41.0456 32.1629C43.3923 33.0861 45.2152 34.4498 46.5142 36.2541C47.8133 38.0165 48.4628 40.1145 48.4628 42.5482C48.4628 43.1777 48.4418 43.6392 48.3999 43.9329H36.9599C37.0018 43.7651 37.0228 43.5133 37.0228 43.1777C37.0228 42.0028 36.6037 41.0586 35.7656 40.3453C34.9695 39.59 33.859 39.2124 32.4342 39.2124C30.9256 39.2124 29.6895 39.59 28.7256 40.3453C27.8037 41.0586 27.3428 42.0447 27.3428 43.3035C27.3428 44.5624 27.9295 45.6324 29.1028 46.5135C30.2761 47.3528 32.099 48.3388 34.5714 49.4718C37.0437 50.6047 39.0552 51.6537 40.6056 52.6188C42.198 53.5839 43.5599 54.8847 44.6914 56.5212C45.8228 58.1157 46.3885 60.0878 46.3885 62.4377C46.3885 65.0392 45.6971 67.368 44.3142 69.4241C42.9314 71.4802 40.9409 73.0957 38.3428 74.2706C35.7447 75.4035 32.7066 75.97 29.2285 75.97Z" stroke="#556FB5" stroke-width="26" stroke-linecap="round" stroke-linejoin="round" mask="url(#path-2-outside-1)"/>
<path d="M68.8329 63.4447C68.791 63.6545 68.7701 63.9273 68.7701 64.2629C68.7701 65.0182 68.9796 65.5637 69.3986 65.8994C69.8596 66.2351 70.5929 66.4029 71.5986 66.4029H75.4329L73.7986 75.5294H68.3301C61.2901 75.5294 57.7701 72.5712 57.7701 66.6547C57.7701 65.7735 57.8748 64.6616 58.0844 63.3188L60.5986 49.3459H56.3244L57.8958 40.4082H62.1701L63.6786 31.8482H74.4272L72.9186 40.4082H79.9586L78.3872 49.3459H71.3472L68.8329 63.4447Z" stroke="#556FB5" stroke-width="26" stroke-linecap="round" stroke-linejoin="round" mask="url(#path-2-outside-1)"/>
<path d="M99.2715 76.0329C96.2544 76.0329 93.5724 75.4245 91.2258 74.2077C88.8791 72.9908 87.0563 71.2704 85.7572 69.0465C84.5001 66.8226 83.8715 64.242 83.8715 61.3047C83.8715 57.3184 84.8144 53.6888 86.7001 50.4159C88.5858 47.1429 91.1839 44.5833 94.4944 42.7371C97.8048 40.8488 101.492 39.9047 105.557 39.9047C108.574 39.9047 111.256 40.5341 113.603 41.7929C115.992 43.0098 117.835 44.7302 119.134 46.9541C120.433 49.178 121.083 51.7586 121.083 54.6959C121.083 58.7241 120.119 62.3747 118.191 65.6477C116.306 68.8786 113.687 71.4173 110.334 73.2635C107.024 75.1098 103.336 76.0329 99.2715 76.0329ZM100.78 66.7806C102.54 66.7806 104.111 66.2561 105.494 65.2071C106.919 64.1161 108.009 62.7314 108.763 61.0529C109.559 59.3326 109.957 57.5492 109.957 55.7029C109.957 53.6049 109.391 51.9894 108.26 50.8565C107.129 49.7235 105.704 49.1571 103.986 49.1571C102.184 49.1571 100.591 49.7026 99.2086 50.7935C97.8677 51.8426 96.8201 53.2273 96.0658 54.9477C95.3115 56.668 94.9344 58.4724 94.9344 60.3606C94.9344 62.4167 95.4791 64.0112 96.5686 65.1441C97.6582 66.2351 99.062 66.7806 100.78 66.7806Z" stroke="#556FB5" stroke-width="26" stroke-linecap="round" stroke-linejoin="round" mask="url(#path-2-outside-1)"/>
<path d="M142.5 46.7653C144.134 44.6673 145.999 43.0308 148.094 41.8559C150.231 40.639 152.452 40.0306 154.757 40.0306L152.745 51.4229H149.791C147.109 51.4229 144.993 52.0104 143.442 53.1853C141.892 54.3182 140.865 56.3324 140.362 59.2277L137.471 75.5294H126.722L132.882 40.4082H143.631L142.5 46.7653Z" stroke="#556FB5" stroke-width="26" stroke-linecap="round" stroke-linejoin="round" mask="url(#path-2-outside-1)"/>
<path d="M178.94 39.9047C183.466 39.9047 187.049 41.1426 189.689 43.6182C192.37 46.052 193.711 49.3878 193.711 53.6259C193.711 55.0106 193.607 56.2484 193.397 57.3394C193.23 58.3045 192.978 59.3326 192.643 60.4235H168.317C168.275 60.6753 168.254 61.0739 168.254 61.6194C168.254 63.4657 168.757 64.8714 169.763 65.8365C170.769 66.8016 172.11 67.2841 173.786 67.2841C176.468 67.2841 178.521 66.1512 179.946 63.8853H191.386C189.877 67.452 187.426 70.3682 184.031 72.6341C180.637 74.9 176.824 76.0329 172.591 76.0329C168.066 76.0329 164.441 74.7741 161.717 72.2565C159.035 69.7388 157.694 66.319 157.694 61.9971C157.694 60.6963 157.82 59.3535 158.071 57.9688C158.7 54.3182 159.999 51.1292 161.969 48.4018C163.938 45.6743 166.389 43.5763 169.323 42.1077C172.256 40.639 175.462 39.9047 178.94 39.9047ZM182.837 54.9477C182.921 54.3602 182.963 53.9616 182.963 53.7518C182.963 52.0733 182.439 50.7935 181.391 49.9124C180.344 48.9892 178.961 48.5277 177.243 48.5277C175.399 48.5277 173.765 49.0941 172.34 50.2271C170.957 51.318 169.951 52.8916 169.323 54.9477H182.837Z" stroke="#556FB5" stroke-width="26" stroke-linecap="round" stroke-linejoin="round" mask="url(#path-2-outside-1)"/>
<path d="M211.45 67.3471H225.53L224.085 75.5294H199.256L207.05 31.3447H217.799L211.45 67.3471Z" stroke="#556FB5" stroke-width="26" stroke-linecap="round" stroke-linejoin="round" mask="url(#path-2-outside-1)"/>
<path d="M248.697 76.0329C245.68 76.0329 242.998 75.4245 240.651 74.2077C238.305 72.9908 236.482 71.2704 235.183 69.0465C233.926 66.8226 233.297 64.242 233.297 61.3047C233.297 57.3184 234.24 53.6888 236.126 50.4159C238.011 47.1429 240.61 44.5833 243.92 42.7371C247.23 40.8488 250.918 39.9047 254.983 39.9047C258 39.9047 260.682 40.5341 263.029 41.7929C265.417 43.0098 267.261 44.7302 268.56 46.9541C269.859 49.178 270.509 51.7586 270.509 54.6959C270.509 58.7241 269.545 62.3747 267.617 65.6477C265.731 68.8786 263.112 71.4173 259.76 73.2635C256.45 75.1098 252.762 76.0329 248.697 76.0329ZM250.206 66.7806C251.966 66.7806 253.537 66.2561 254.92 65.2071C256.345 64.1161 257.434 62.7314 258.189 61.0529C258.985 59.3326 259.383 57.5492 259.383 55.7029C259.383 53.6049 258.817 51.9894 257.686 50.8565C256.554 49.7235 255.13 49.1571 253.411 49.1571C251.61 49.1571 250.017 49.7026 248.634 50.7935C247.293 51.8426 246.246 53.2273 245.491 54.9477C244.737 56.668 244.36 58.4724 244.36 60.3606C244.36 62.4167 244.905 64.0112 245.994 65.1441C247.084 66.2351 248.488 66.7806 250.206 66.7806Z" stroke="#556FB5" stroke-width="26" stroke-linecap="round" stroke-linejoin="round" mask="url(#path-2-outside-1)"/>
<path d="M295.759 39.9047C298.232 39.9047 300.327 40.4082 302.045 41.4153C303.763 42.4224 304.958 43.7441 305.628 45.3806L306.508 40.4082H317.257L311.097 75.4665C310.51 78.6975 309.337 81.6137 307.577 84.2153C305.859 86.8588 303.533 88.9569 300.599 90.5094C297.708 92.062 294.335 92.8382 290.479 92.8382C285.283 92.8382 281.281 91.6004 278.474 89.1247C275.666 86.691 274.409 83.3761 274.702 79.18H285.325C285.451 80.5228 286.059 81.5718 287.148 82.3271C288.279 83.1243 289.767 83.5229 291.611 83.5229C293.832 83.5229 295.718 82.8726 297.268 81.5718C298.819 80.3129 299.845 78.2779 300.348 75.4665L301.228 70.4941C299.887 72.1306 298.19 73.4733 296.137 74.5224C294.125 75.5294 291.883 76.0329 289.411 76.0329C286.939 76.0329 284.739 75.4665 282.811 74.3335C280.925 73.2006 279.438 71.5851 278.348 69.4871C277.3 67.389 276.777 64.9343 276.777 62.1229C276.777 60.8222 276.902 59.4165 277.154 57.9059C277.782 54.2973 279.019 51.1292 280.862 48.4018C282.706 45.6743 284.927 43.5763 287.525 42.1077C290.123 40.639 292.868 39.9047 295.759 39.9047ZM303.428 57.9688C303.554 57.2135 303.617 56.5212 303.617 55.8918C303.617 53.8357 303.009 52.2202 301.794 51.0453C300.62 49.8704 299.112 49.2829 297.268 49.2829C295.131 49.2829 293.182 50.0592 291.422 51.6118C289.662 53.1224 288.552 55.2204 288.091 57.9059C287.965 58.6612 287.902 59.3535 287.902 59.9829C287.902 62.039 288.489 63.6755 289.662 64.8924C290.878 66.0673 292.386 66.6547 294.188 66.6547C296.325 66.6547 298.274 65.8784 300.034 64.3259C301.794 62.7733 302.925 60.6543 303.428 57.9688Z" stroke="#556FB5" stroke-width="26" stroke-linecap="round" stroke-linejoin="round" mask="url(#path-2-outside-1)"/>
<path d="M338.296 76.0329C335.278 76.0329 332.597 75.4245 330.25 74.2077C327.903 72.9908 326.08 71.2704 324.781 69.0465C323.524 66.8226 322.896 64.242 322.896 61.3047C322.896 57.3184 323.838 53.6888 325.724 50.4159C327.61 47.1429 330.208 44.5833 333.518 42.7371C336.829 40.8488 340.517 39.9047 344.581 39.9047C347.598 39.9047 350.28 40.5341 352.627 41.7929C355.016 43.0098 356.859 44.7302 358.158 46.9541C359.458 49.178 360.107 51.7586 360.107 54.6959C360.107 58.7241 359.143 62.3747 357.216 65.6477C355.33 68.8786 352.711 71.4173 349.358 73.2635C346.048 75.1098 342.36 76.0329 338.296 76.0329ZM339.804 66.7806C341.564 66.7806 343.136 66.2561 344.518 65.2071C345.943 64.1161 347.033 62.7314 347.787 61.0529C348.583 59.3326 348.981 57.5492 348.981 55.7029C348.981 53.6049 348.416 51.9894 347.284 50.8565C346.153 49.7235 344.728 49.1571 343.01 49.1571C341.208 49.1571 339.616 49.7026 338.233 50.7935C336.892 51.8426 335.844 53.2273 335.09 54.9477C334.336 56.668 333.958 58.4724 333.958 60.3606C333.958 62.4167 334.503 64.0112 335.593 65.1441C336.682 66.2351 338.086 66.7806 339.804 66.7806Z" stroke="#556FB5" stroke-width="26" stroke-linecap="round" stroke-linejoin="round" mask="url(#path-2-outside-1)"/>
</svg>
