<svg width="98" height="55" viewBox="0 0 98 55" fill="none" xmlns="http://www.w3.org/2000/svg">
<g clip-path="url(#clip0)">
<path d="M38.3333 14.666V24.666H28.3333" stroke="#DBDBDB" stroke-width="4" stroke-linecap="round" stroke-linejoin="round"/>
<path d="M1.66675 41.334V31.334H11.6667" stroke="#DBDBDB" stroke-width="4" stroke-linecap="round" stroke-linejoin="round"/>
<path d="M5.85008 23C6.69536 20.6113 8.13197 18.4756 10.0259 16.7923C11.9197 15.109 14.2092 13.9329 16.6806 13.3737C19.1519 12.8145 21.7247 12.8905 24.1587 13.5946C26.5928 14.2986 28.8088 15.6078 30.6001 17.4L38.3334 24.6666M1.66675 31.3333L9.40008 38.6C11.1913 40.3921 13.4074 41.7013 15.8414 42.4053C18.2755 43.1094 20.8482 43.1854 23.3196 42.6262C25.791 42.067 28.0804 40.8909 29.9743 39.2076C31.8682 37.5243 33.3048 35.3887 34.1501 33" stroke="#DBDBDB" stroke-width="4" stroke-linecap="round" stroke-linejoin="round"/>
</g>
<mask id="path-4-inside-1" fill="white">
<path fill-rule="evenodd" clip-rule="evenodd" d="M91.125 18.3332V36.6665C91.1242 37.4703 90.912 38.2597 90.5098 38.9555C90.1075 39.6514 89.5294 40.2292 88.8333 40.6311L72.7917 49.7978C72.6962 49.8529 72.5991 49.9044 72.5003 49.9523V28.6762L91.1053 17.9139C91.1183 18.0529 91.1249 18.1928 91.125 18.3332ZM89.0337 14.4912C88.968 14.4487 88.9013 14.4078 88.8333 14.3686L72.7917 5.20194C72.0949 4.79967 71.3045 4.58789 70.5 4.58789C69.6955 4.58789 68.9051 4.79967 68.2083 5.20194L62.3183 8.56766L80.8248 19.2397L89.0337 14.4912ZM58.5132 10.742L52.1667 14.3686C52.0987 14.4079 52.0318 14.4488 51.9661 14.4914L70.4997 25.2124L76.8275 21.5521L59.1887 11.3804C58.9069 11.2178 58.6796 10.9971 58.5132 10.742ZM49.8946 17.9141L68.5003 28.6769V49.9526C68.4014 49.9046 68.304 49.853 68.2083 49.7978L52.1667 40.6311C51.4706 40.2292 50.8925 39.6514 50.4902 38.9555C50.088 38.2597 49.8758 37.4703 49.875 36.6665V18.3332C49.8751 18.1929 49.8817 18.0531 49.8946 17.9141Z"/>
</mask>
<path fill-rule="evenodd" clip-rule="evenodd" d="M91.125 18.3332V36.6665C91.1242 37.4703 90.912 38.2597 90.5098 38.9555C90.1075 39.6514 89.5294 40.2292 88.8333 40.6311L72.7917 49.7978C72.6962 49.8529 72.5991 49.9044 72.5003 49.9523V28.6762L91.1053 17.9139C91.1183 18.0529 91.1249 18.1928 91.125 18.3332ZM89.0337 14.4912C88.968 14.4487 88.9013 14.4078 88.8333 14.3686L72.7917 5.20194C72.0949 4.79967 71.3045 4.58789 70.5 4.58789C69.6955 4.58789 68.9051 4.79967 68.2083 5.20194L62.3183 8.56766L80.8248 19.2397L89.0337 14.4912ZM58.5132 10.742L52.1667 14.3686C52.0987 14.4079 52.0318 14.4488 51.9661 14.4914L70.4997 25.2124L76.8275 21.5521L59.1887 11.3804C58.9069 11.2178 58.6796 10.9971 58.5132 10.742ZM49.8946 17.9141L68.5003 28.6769V49.9526C68.4014 49.9046 68.304 49.853 68.2083 49.7978L52.1667 40.6311C51.4706 40.2292 50.8925 39.6514 50.4902 38.9555C50.088 38.2597 49.8758 37.4703 49.875 36.6665V18.3332C49.8751 18.1929 49.8817 18.0531 49.8946 17.9141Z" fill="#DBDBDB"/>
<path d="M91.125 36.6665L95.125 36.6706V36.6665H91.125ZM91.125 18.3332H95.125L95.125 18.3291L91.125 18.3332ZM90.5098 38.9555L93.9729 40.9573L93.9729 40.9573L90.5098 38.9555ZM88.8333 40.6311L90.8179 44.1041C90.823 44.1011 90.8282 44.0982 90.8333 44.0952L88.8333 40.6311ZM72.7917 49.7978L70.8071 46.3248C70.802 46.3277 70.7968 46.3307 70.7917 46.3337L72.7917 49.7978ZM72.5003 49.9523H68.5003C68.5003 51.3301 69.2094 52.6109 70.377 53.3422C71.5447 54.0736 73.0065 54.1525 74.2461 53.5512L72.5003 49.9523ZM72.5003 28.6762L70.4974 25.2138C69.2615 25.9287 68.5003 27.2483 68.5003 28.6762H72.5003ZM91.1053 17.9139L95.0882 17.5438C94.962 16.186 94.1528 14.986 92.9413 14.3601C91.7298 13.7342 90.2828 13.7686 89.1025 14.4514L91.1053 17.9139ZM89.0337 14.4912L91.0366 17.9536C92.2414 17.2567 92.9973 15.9835 93.0324 14.592C93.0675 13.2006 92.3767 11.8909 91.2085 11.1341L89.0337 14.4912ZM88.8333 14.3686L90.8333 10.9045C90.8282 10.9015 90.823 10.8986 90.8179 10.8956L88.8333 14.3686ZM72.7917 5.20194L70.7917 8.66604C70.7968 8.66901 70.802 8.67197 70.8071 8.67491L72.7917 5.20194ZM68.2083 5.20194L70.1929 8.67491C70.198 8.67197 70.2032 8.66901 70.2083 8.66604L68.2083 5.20194ZM62.3183 8.56766L60.3338 5.09469C59.0899 5.80546 58.3212 7.12717 58.3183 8.55978C58.3155 9.99239 59.0791 11.3171 60.3201 12.0328L62.3183 8.56766ZM80.8248 19.2397L78.8266 22.7049C80.065 23.419 81.5903 23.418 82.8277 22.7022L80.8248 19.2397ZM58.5132 10.742L61.8635 8.55672C60.7065 6.78291 58.3674 6.21832 56.5286 7.26905L58.5132 10.742ZM52.1667 14.3686L50.1821 10.8956C50.177 10.8986 50.1718 10.9015 50.1667 10.9045L52.1667 14.3686ZM51.9661 14.4914L49.7911 11.1344C48.623 11.8912 47.9323 13.2009 47.9674 14.5923C48.0025 15.9837 48.7584 17.2569 49.9632 17.9538L51.9661 14.4914ZM70.4997 25.2124L68.4968 28.6749C69.7359 29.3916 71.2636 29.3916 72.5026 28.6749L70.4997 25.2124ZM76.8275 21.5521L78.8304 25.0145C80.0672 24.299 80.8285 22.9782 80.8275 21.5494C80.8265 20.1205 80.0635 18.8007 78.8257 18.0869L76.8275 21.5521ZM59.1887 11.3804L57.1905 14.8455L57.1905 14.8455L59.1887 11.3804ZM68.5003 28.6769H72.5003C72.5003 27.249 71.7392 25.9294 70.5032 25.2145L68.5003 28.6769ZM49.8946 17.9141L51.8975 14.4517C50.7171 13.7689 49.2701 13.7345 48.0586 14.3604C46.847 14.9864 46.0378 16.1865 45.9118 17.5443L49.8946 17.9141ZM68.5003 49.9526L66.7551 53.5518C67.9947 54.1529 69.4564 54.0738 70.6239 53.3424C71.7914 52.611 72.5003 51.3303 72.5003 49.9526H68.5003ZM68.2083 49.7978L70.2084 46.3337C70.2032 46.3307 70.1981 46.3278 70.1929 46.3248L68.2083 49.7978ZM52.1667 40.6311L50.1667 44.0952C50.1718 44.0982 50.177 44.1011 50.1821 44.1041L52.1667 40.6311ZM50.4902 38.9555L47.0271 40.9573L47.0271 40.9573L50.4902 38.9555ZM49.875 36.6665H45.875L45.875 36.6706L49.875 36.6665ZM49.875 18.3332L45.875 18.3291V18.3332H49.875ZM95.125 36.6665V18.3332H87.125V36.6665H95.125ZM93.9729 40.9573C94.7261 39.6542 95.1235 38.1758 95.125 36.6706L87.125 36.6624C87.1249 36.7647 87.0979 36.8652 87.0467 36.9538L93.9729 40.9573ZM90.8333 44.0952C92.1369 43.3426 93.2196 42.2605 93.9729 40.9573L87.0467 36.9538C86.9955 37.0423 86.9219 37.1159 86.8333 37.167L90.8333 44.0952ZM74.7762 53.2708L90.8179 44.1041L86.8488 37.1581L70.8071 46.3248L74.7762 53.2708ZM74.2461 53.5512C74.431 53.4615 74.613 53.365 74.7916 53.2619L70.7917 46.3337C70.7795 46.3407 70.7671 46.3473 70.7545 46.3534L74.2461 53.5512ZM68.5003 28.6762V49.9523H76.5003V28.6762H68.5003ZM89.1025 14.4514L70.4974 25.2138L74.5032 32.1386L93.1082 21.3763L89.1025 14.4514ZM95.125 18.3291C95.1247 18.0663 95.1124 17.8043 95.0882 17.5438L87.1225 18.2839C87.1241 18.3016 87.125 18.3194 87.125 18.3373L95.125 18.3291ZM91.2085 11.1341C91.0856 11.0545 90.9605 10.9779 90.8333 10.9045L86.8334 17.8327C86.842 17.8377 86.8505 17.8429 86.8588 17.8483L91.2085 11.1341ZM90.8179 10.8956L74.7762 1.72897L70.8071 8.67491L86.8488 17.8416L90.8179 10.8956ZM74.7917 1.73784C73.4868 0.984493 72.0067 0.587891 70.5 0.587891V8.58789C70.6024 8.58789 70.703 8.61484 70.7917 8.66604L74.7917 1.73784ZM70.5 0.587891C68.9933 0.587891 67.5132 0.984494 66.2083 1.73784L70.2083 8.66604C70.297 8.61484 70.3976 8.58789 70.5 8.58789V0.587891ZM66.2238 1.72897L60.3338 5.09469L64.3029 12.0406L70.1929 8.67491L66.2238 1.72897ZM60.3201 12.0328L78.8266 22.7049L82.823 15.7746L64.3165 5.10253L60.3201 12.0328ZM82.8277 22.7022L91.0366 17.9536L87.0308 11.0288L78.8219 15.7773L82.8277 22.7022ZM56.5286 7.26905L50.1821 10.8956L54.1512 17.8416L60.4978 14.215L56.5286 7.26905ZM50.1667 10.9045C50.0393 10.978 49.9141 11.0547 49.7911 11.1344L54.1411 17.8484C54.1495 17.8429 54.158 17.8377 54.1667 17.8327L50.1667 10.9045ZM49.9632 17.9538L68.4968 28.6749L72.5026 21.75L53.969 11.0289L49.9632 17.9538ZM72.5026 28.6749L78.8304 25.0145L74.8246 18.0896L68.4968 21.75L72.5026 28.6749ZM78.8257 18.0869L61.1869 7.91523L57.1905 14.8455L74.8293 25.0172L78.8257 18.0869ZM61.1869 7.91523C61.4626 8.07419 61.694 8.29688 61.8635 8.55672L55.1629 12.9273C55.6651 13.6972 56.3512 14.3615 57.1905 14.8455L61.1869 7.91523ZM70.5032 25.2145L51.8975 14.4517L47.8917 21.3766L66.4974 32.1393L70.5032 25.2145ZM72.5003 49.9526V28.6769H64.5003V49.9526H72.5003ZM66.2083 53.2619C66.3875 53.3653 66.5699 53.462 66.7551 53.5518L70.2456 46.3534C70.2329 46.3473 70.2205 46.3407 70.2084 46.3337L66.2083 53.2619ZM50.1821 44.1041L66.2238 53.2708L70.1929 46.3248L54.1512 37.1581L50.1821 44.1041ZM47.0271 40.9573C47.7804 42.2605 48.8631 43.3426 50.1667 44.0952L54.1667 37.167C54.0781 37.1159 54.0045 37.0423 53.9533 36.9538L47.0271 40.9573ZM45.875 36.6706C45.8765 38.1758 46.2739 39.6542 47.0271 40.9573L53.9533 36.9538C53.9021 36.8652 53.8751 36.7647 53.875 36.6624L45.875 36.6706ZM45.875 18.3332V36.6665H53.875V18.3332H45.875ZM45.9118 17.5443C45.8876 17.8046 45.8753 18.0664 45.875 18.3291L53.875 18.3373C53.875 18.3194 53.8759 18.3016 53.8775 18.284L45.9118 17.5443Z" fill="#DBDBDB" mask="url(#path-4-inside-1)"/>
<defs>
<clipPath id="clip0">
<rect width="40" height="40" fill="white" transform="translate(0 8)"/>
</clipPath>
</defs>
</svg>
