<svg width="17" height="18" viewBox="0 0 17 18" fill="none" xmlns="http://www.w3.org/2000/svg">
<g clip-path="url(#clip0)">
<path d="M14.875 7.58331C14.875 12.5416 8.5 16.7916 8.5 16.7916C8.5 16.7916 2.125 12.5416 2.125 7.58331C2.125 5.89256 2.79665 4.27105 3.99219 3.07551C5.18774 1.87996 6.80924 1.20831 8.5 1.20831C10.1908 1.20831 11.8123 1.87996 13.0078 3.07551C14.2033 4.27105 14.875 5.89256 14.875 7.58331Z" stroke="#556FB5" stroke-linecap="round" stroke-linejoin="round"/>
<path d="M8.5 9.70831C9.6736 9.70831 10.625 8.75692 10.625 7.58331C10.625 6.40971 9.6736 5.45831 8.5 5.45831C7.32639 5.45831 6.375 6.40971 6.375 7.58331C6.375 8.75692 7.32639 9.70831 8.5 9.70831Z" stroke="#556FB5" stroke-linecap="round" stroke-linejoin="round"/>
</g>
<defs>
<clipPath id="clip0">
<rect width="17" height="17" fill="white" transform="translate(0 0.5)"/>
</clipPath>
</defs>
</svg>
