<svg width="24" height="24" viewBox="0 0 24 24" fill="none" xmlns="http://www.w3.org/2000/svg">
<path d="M12 4.96289L11.2936 4.25644C10.1681 3.13098 8.64164 2.4987 7.05 2.4987C5.45836 2.4987 3.9319 3.13098 2.80644 4.25644C1.68098 5.3819 1.04871 6.90835 1.04871 8.49999C1.04871 10.0916 1.68098 11.6181 2.80644 12.7435L3.86644 13.8035L11.6464 21.5835C11.8417 21.7788 12.1583 21.7788 12.3536 21.5835L20.1336 13.8035L21.1935 12.7436C21.1935 12.7436 21.1935 12.7436 21.1936 12.7435C21.751 12.1864 22.1931 11.5248 22.4948 10.7967C22.7965 10.0686 22.9518 9.28816 22.9518 8.49999C22.9518 7.71183 22.7965 6.93138 22.4948 6.20324C22.1931 5.47511 21.7509 4.81355 21.1935 4.25636C20.6363 3.69899 19.9748 3.25684 19.2467 2.95516C18.5186 2.65346 17.7382 2.49817 16.95 2.49817C16.1618 2.49817 15.3814 2.65346 14.6532 2.95516C13.9251 3.25685 13.2636 3.69903 12.7064 4.25644C12.7064 4.25647 12.7064 4.2565 12.7064 4.25652L12 4.96289Z" fill="#EF6C57" stroke="#EF6C57" stroke-linecap="round" stroke-linejoin="round"/>
</svg>
