<svg width="17" height="17" viewBox="0 0 17 17" fill="none" xmlns="http://www.w3.org/2000/svg">
<path d="M8.49996 15.5834C12.412 15.5834 15.5833 12.412 15.5833 8.50002C15.5833 4.588 12.412 1.41669 8.49996 1.41669C4.58794 1.41669 1.41663 4.588 1.41663 8.50002C1.41663 12.412 4.58794 15.5834 8.49996 15.5834Z" stroke="#556FB5" stroke-linecap="round" stroke-linejoin="round"/>
<path d="M6.43872 6.37498C6.60525 5.90157 6.93395 5.50239 7.36661 5.24811C7.79926 4.99384 8.30794 4.90089 8.80255 4.98573C9.29717 5.07057 9.7458 5.32772 10.069 5.71164C10.3922 6.09556 10.5691 6.58147 10.5683 7.08331C10.5683 8.49998 8.4433 9.20831 8.4433 9.20831" stroke="#556FB5" stroke-linecap="round" stroke-linejoin="round"/>
<path d="M8.5 12.0417H8.50708" stroke="#556FB5" stroke-linecap="round" stroke-linejoin="round"/>
</svg>
