<svg width="17" height="17" viewBox="0 0 17 17" fill="none" xmlns="http://www.w3.org/2000/svg">
<path d="M11.3334 2.125H0.708374V11.3333H11.3334V2.125Z" stroke="#556FB5" stroke-linecap="round" stroke-linejoin="round"/>
<path d="M11.3334 5.66669H14.1667L16.2917 7.79169V11.3334H11.3334V5.66669Z" stroke="#556FB5" stroke-linecap="round" stroke-linejoin="round"/>
<path d="M3.89583 14.875C4.87384 14.875 5.66667 14.0821 5.66667 13.1041C5.66667 12.1261 4.87384 11.3333 3.89583 11.3333C2.91783 11.3333 2.125 12.1261 2.125 13.1041C2.125 14.0821 2.91783 14.875 3.89583 14.875Z" stroke="#556FB5" stroke-linecap="round" stroke-linejoin="round"/>
<path d="M13.1042 14.875C14.0822 14.875 14.875 14.0821 14.875 13.1041C14.875 12.1261 14.0822 11.3333 13.1042 11.3333C12.1262 11.3333 11.3334 12.1261 11.3334 13.1041C11.3334 14.0821 12.1262 14.875 13.1042 14.875Z" stroke="#556FB5" stroke-linecap="round" stroke-linejoin="round"/>
</svg>
