<svg width="24" height="24" viewBox="0 0 24 24" fill="none" xmlns="http://www.w3.org/2000/svg">
<path fill-rule="evenodd" clip-rule="evenodd" d="M3.75 5L6 2H18L20.25 5H3.75ZM3 7V20C3 20.5304 3.21071 21.0391 3.58579 21.4142C3.96086 21.7893 4.46957 22 5 22H19C19.5304 22 20.0391 21.7893 20.4142 21.4142C20.7893 21.0391 21 20.5304 21 20V7H3ZM8 9C8.55228 9 9 9.44772 9 10C9 10.7956 9.31607 11.5587 9.87868 12.1213C10.4413 12.6839 11.2044 13 12 13C12.7956 13 13.5587 12.6839 14.1213 12.1213C14.6839 11.5587 15 10.7956 15 10C15 9.44772 15.4477 9 16 9C16.5523 9 17 9.44772 17 10C17 11.3261 16.4732 12.5979 15.5355 13.5355C14.5979 14.4732 13.3261 15 12 15C10.6739 15 9.40215 14.4732 8.46447 13.5355C7.52678 12.5979 7 11.3261 7 10C7 9.44772 7.44772 9 8 9Z" fill="#556FB5"/>
<path d="M6 2V1.5C5.84262 1.5 5.69443 1.5741 5.6 1.7L6 2ZM3.75 5L3.35 4.7C3.23637 4.85151 3.21809 5.05421 3.30279 5.22361C3.38748 5.393 3.56061 5.5 3.75 5.5V5ZM18 2L18.4 1.7C18.3056 1.5741 18.1574 1.5 18 1.5V2ZM20.25 5V5.5C20.4394 5.5 20.6125 5.393 20.6972 5.22361C20.7819 5.05421 20.7636 4.85151 20.65 4.7L20.25 5ZM3 7V6.5C2.72386 6.5 2.5 6.72386 2.5 7H3ZM3.58579 21.4142L3.93934 21.0607H3.93934L3.58579 21.4142ZM21 7H21.5C21.5 6.72386 21.2761 6.5 21 6.5V7ZM15.5355 13.5355L15.182 13.182V13.182L15.5355 13.5355ZM8.46447 13.5355L8.81802 13.182L8.46447 13.5355ZM5.6 1.7L3.35 4.7L4.15 5.3L6.4 2.3L5.6 1.7ZM18 1.5H6V2.5H18V1.5ZM20.65 4.7L18.4 1.7L17.6 2.3L19.85 5.3L20.65 4.7ZM20.25 4.5H3.75V5.5H20.25V4.5ZM2.5 7V20H3.5V7H2.5ZM2.5 20C2.5 20.663 2.76339 21.2989 3.23223 21.7678L3.93934 21.0607C3.65804 20.7794 3.5 20.3978 3.5 20H2.5ZM3.23223 21.7678C3.70107 22.2366 4.33696 22.5 5 22.5V21.5C4.60218 21.5 4.22064 21.342 3.93934 21.0607L3.23223 21.7678ZM5 22.5H19V21.5H5V22.5ZM19 22.5C19.663 22.5 20.2989 22.2366 20.7678 21.7678L20.0607 21.0607C19.7794 21.342 19.3978 21.5 19 21.5V22.5ZM20.7678 21.7678C21.2366 21.2989 21.5 20.663 21.5 20H20.5C20.5 20.3978 20.342 20.7794 20.0607 21.0607L20.7678 21.7678ZM21.5 20V7H20.5V20H21.5ZM3 7.5H21V6.5H3V7.5ZM9.5 10C9.5 9.17157 8.82843 8.5 8 8.5V9.5C8.27614 9.5 8.5 9.72386 8.5 10H9.5ZM10.2322 11.7678C9.76339 11.2989 9.5 10.663 9.5 10H8.5C8.5 10.9283 8.86875 11.8185 9.52513 12.4749L10.2322 11.7678ZM12 12.5C11.337 12.5 10.7011 12.2366 10.2322 11.7678L9.52513 12.4749C10.1815 13.1313 11.0717 13.5 12 13.5V12.5ZM13.7678 11.7678C13.2989 12.2366 12.663 12.5 12 12.5V13.5C12.9283 13.5 13.8185 13.1313 14.4749 12.4749L13.7678 11.7678ZM14.5 10C14.5 10.663 14.2366 11.2989 13.7678 11.7678L14.4749 12.4749C15.1313 11.8185 15.5 10.9283 15.5 10H14.5ZM16 8.5C15.1716 8.5 14.5 9.17157 14.5 10H15.5C15.5 9.72386 15.7239 9.5 16 9.5V8.5ZM17.5 10C17.5 9.17157 16.8284 8.5 16 8.5V9.5C16.2761 9.5 16.5 9.72386 16.5 10H17.5ZM15.8891 13.8891C16.9205 12.8576 17.5 11.4587 17.5 10H16.5C16.5 11.1935 16.0259 12.3381 15.182 13.182L15.8891 13.8891ZM12 15.5C13.4587 15.5 14.8576 14.9205 15.8891 13.8891L15.182 13.182C14.3381 14.0259 13.1935 14.5 12 14.5V15.5ZM8.11091 13.8891C9.14236 14.9205 10.5413 15.5 12 15.5V14.5C10.8065 14.5 9.66193 14.0259 8.81802 13.182L8.11091 13.8891ZM6.5 10C6.5 11.4587 7.07946 12.8576 8.11091 13.8891L8.81802 13.182C7.97411 12.3381 7.5 11.1935 7.5 10H6.5ZM8 8.5C7.17157 8.5 6.5 9.17157 6.5 10H7.5C7.5 9.72386 7.72386 9.5 8 9.5V8.5Z" fill="#556FB5"/>
</svg>
