<svg width="62" height="62" viewBox="0 0 62 62" fill="none" xmlns="http://www.w3.org/2000/svg">
<circle cx="31" cy="31" r="29" fill="#F6F9FB" stroke="white" stroke-width="4"/>
<path fill-rule="evenodd" clip-rule="evenodd" d="M43.0835 40.6672C43.5367 40.214 43.7913 39.5993 43.7913 38.9583V25.6667C43.7913 25.0257 43.5367 24.411 43.0835 23.9578C42.6303 23.5046 42.0156 23.25 41.3747 23.25H36.5413L34.1247 19.625H26.8747L24.458 23.25H19.6247C18.9837 23.25 18.369 23.5046 17.9158 23.9578C17.4626 24.411 17.208 25.0257 17.208 25.6667V38.9583C17.208 39.5993 17.4626 40.214 17.9158 40.6672C18.369 41.1204 18.9837 41.375 19.6247 41.375H41.3747C42.0156 41.375 42.6303 41.1204 43.0835 40.6672ZM35.3329 31.7083C35.3329 34.3777 33.169 36.5417 30.4996 36.5417C27.8302 36.5417 25.6663 34.3777 25.6663 31.7083C25.6663 29.039 27.8302 26.875 30.4996 26.875C33.169 26.875 35.3329 29.039 35.3329 31.7083Z" fill="#556FB5"/>
</svg>
