<svg width="98" height="55" viewBox="0 0 98 55" fill="none" xmlns="http://www.w3.org/2000/svg">
<rect x="2" y="2" width="91" height="47" rx="8" stroke="#556FB5" stroke-width="4"/>
<circle cx="88" cy="45" r="10" fill="#556FB5"/>
<path d="M92.6663 41.5L86.2497 47.9167L83.333 45" stroke="white" stroke-width="2" stroke-linecap="round" stroke-linejoin="round"/>
<circle cx="26.5" cy="25.5" r="15.5" stroke="#556FB5" stroke-width="4"/>
<path d="M32.608 29.176C32.608 30.008 32.392 30.792 31.96 31.528C31.544 32.248 30.92 32.848 30.088 33.328C29.272 33.792 28.304 34.064 27.184 34.144V36.088H25.648V34.12C24.048 33.976 22.76 33.496 21.784 32.68C20.808 31.848 20.304 30.728 20.272 29.32H23.872C23.968 30.472 24.56 31.168 25.648 31.408V26.824C24.496 26.536 23.568 26.248 22.864 25.96C22.16 25.672 21.552 25.208 21.04 24.568C20.528 23.928 20.272 23.056 20.272 21.952C20.272 20.56 20.768 19.424 21.76 18.544C22.768 17.664 24.064 17.16 25.648 17.032V15.088H27.184V17.032C28.72 17.16 29.944 17.624 30.856 18.424C31.784 19.224 32.304 20.328 32.416 21.736H28.792C28.744 21.272 28.576 20.872 28.288 20.536C28.016 20.184 27.648 19.936 27.184 19.792V24.328C28.384 24.632 29.328 24.928 30.016 25.216C30.72 25.488 31.328 25.944 31.84 26.584C32.352 27.208 32.608 28.072 32.608 29.176ZM23.776 21.784C23.776 22.312 23.936 22.744 24.256 23.08C24.576 23.4 25.04 23.664 25.648 23.872V19.72C25.072 19.8 24.616 20.016 24.28 20.368C23.944 20.72 23.776 21.192 23.776 21.784ZM27.184 31.456C27.792 31.344 28.264 31.096 28.6 30.712C28.952 30.328 29.128 29.864 29.128 29.32C29.128 28.792 28.96 28.368 28.624 28.048C28.288 27.728 27.808 27.464 27.184 27.256V31.456Z" fill="#556FB5"/>
<rect x="50" y="8" width="33" height="4" rx="2" fill="#B7C1DA"/>
<rect x="50" y="16" width="22" height="4" rx="2" fill="#B7C1DA"/>
<rect x="50" y="24" width="28" height="3" rx="1.5" fill="#B7C1DA"/>
<rect x="50" y="31" width="15" height="4" rx="2" fill="#B7C1DA"/>
<rect x="50" y="39" width="20" height="4" rx="2" fill="#B7C1DA"/>
</svg>
