<svg width="84" height="84" viewBox="0 0 84 84" fill="none" xmlns="http://www.w3.org/2000/svg">
<g clip-path="url(#clip0)">
<path d="M42 84C65.196 84 84 65.196 84 42C84 18.804 65.196 0 42 0C18.804 0 0 18.804 0 42C0 65.196 18.804 84 42 84Z" fill="#556FB5"/>
<path fill-rule="evenodd" clip-rule="evenodd" d="M14.3281 73.5961C14.8527 70.6533 15.9211 67.3031 18.4334 64.4653C19.8536 62.8614 23.3967 61.7488 27.2316 60.5448C30.1275 59.6358 33.1897 58.674 35.6302 57.4093L47.8217 54.1333C50.3365 54.8846 53.4254 55.4904 56.6291 56.1185C63.4541 57.4569 70.8003 58.897 74.2359 62.0666C75.4577 63.1936 76.1754 64.4998 76.5445 65.8956C68.9631 76.8352 56.3183 84 42.0001 84C31.4007 84 21.7184 80.0734 14.3281 73.5961Z" fill="#4BAEA0"/>
<path d="M23.9775 26.4641C23.234 24.6564 24.0991 23.3453 20.6757 21.3845C16.3964 18.9335 25.1337 4.37104 29.4369 4.01679C32.7431 3.74462 30.6555 7.05061 29.0384 8.93697C30.6477 7.1453 34.5049 3.97337 38.6121 4.026C41.9878 4.06926 41.3002 5.83826 40.0411 7.27732C41.9577 5.82276 45.6224 4.6596 50.6105 7.37065C56.7994 10.7348 56.9254 12.8821 56.2147 13.5352C58.709 14.9439 63.5492 19.0477 62.9533 24.1936C62.209 30.626 61.7619 34.4855 55.9995 38.7825C51.3893 42.2202 48.5492 43.2185 47.7055 43.288L23.9775 26.4641Z" fill="#273D79"/>
<path d="M50.6335 55.0666C49.9045 53.3231 49.5373 41.5028 49.2335 38.2666L37.5541 44.6461C39.0572 56.4638 35.4668 56.51 35.4668 57.9907C35.4668 59.5177 36.353 67.9013 38.8008 67.1528C45.4687 67.1528 51.1253 56.2426 50.6335 55.0666Z" fill="#FBA68B"/>
<path d="M26.487 43.5616C24.2177 38.4556 21.2537 38.3266 21.9923 36.4855C22.6229 34.9136 26.5178 31.7981 24.2319 27.2264C23.724 26.2105 23.216 24.5681 24.2319 23.3118C27.5929 19.1558 36.2077 17.205 41.2489 17.8289C50.1078 18.9252 44.5633 18.1135 45.8068 23.3119C47.0502 28.5103 52.4477 26.5879 50.9641 33.3359C51.5839 32.6053 53.9242 26.5683 55.9467 28.8482C57.9693 31.1282 53.5929 34.3088 51.2353 36.6266C50.4886 37.8773 48.5664 39.4966 47.3489 42.0434C45.827 45.2268 36.7148 48.3352 32.2093 49.1514C28.0109 49.9112 27.503 45.8476 26.487 43.5616Z" fill="#FFB198"/>
</g>
<defs>
<clipPath id="clip0">
<rect width="84" height="84" fill="white"/>
</clipPath>
</defs>
</svg>
