<svg width="278" height="278" viewBox="0 0 278 278" fill="none" xmlns="http://www.w3.org/2000/svg">
<circle cx="139" cy="139" r="139" fill="#556FB5"/>
<path fill-rule="evenodd" clip-rule="evenodd" d="M47.4189 243.568C49.1551 233.83 52.691 222.741 61.0056 213.35C65.7058 208.04 77.4316 204.359 90.1235 200.374C99.7072 197.366 109.842 194.184 117.919 189.998L158.266 179.156C166.59 181.642 176.813 183.647 187.416 185.726C210.002 190.154 234.315 194.922 245.685 205.411C249.728 209.141 252.104 213.465 253.326 218.083C228.234 254.288 186.386 278 139 278C103.921 278 71.877 265.006 47.4189 243.568Z" fill="#4BAEA0"/>
<path d="M79.3541 87.5838C76.8936 81.6013 79.7566 77.2619 68.4267 70.7726C54.2643 62.6609 83.1807 14.4663 97.4222 13.2939C108.364 12.3931 101.455 23.3343 96.1034 29.5773C101.429 23.6478 114.195 13.1501 127.788 13.3243C138.96 13.4675 136.684 19.322 132.517 24.0847C138.86 19.2707 150.989 15.4212 167.496 24.3935C187.98 35.5271 188.396 42.6337 186.044 44.7953C194.299 49.4573 210.318 63.0389 208.346 80.0695C205.882 101.358 204.403 114.131 185.332 128.352C170.075 139.729 160.676 143.033 157.883 143.263L79.3541 87.5838Z" fill="#273D79"/>
<path d="M167.572 182.244C165.16 176.474 163.944 137.355 162.939 126.644L124.286 147.757C129.261 186.869 117.378 187.021 117.378 191.922C117.378 196.976 120.311 224.721 128.412 222.244C150.48 222.244 169.2 186.137 167.572 182.244Z" fill="#FBA68B"/>
<path d="M87.6575 144.168C80.1471 127.269 70.3375 126.842 72.7818 120.749C74.8688 115.547 87.7593 105.236 80.1941 90.1057C78.513 86.7435 76.8319 81.3079 80.1941 77.1503C91.3171 63.3959 119.828 56.9397 136.512 59.0044C165.831 62.6326 147.481 59.9464 151.597 77.1506C155.712 94.3548 173.575 87.9924 168.666 110.325C170.716 107.907 178.461 87.9275 185.155 95.4733C191.849 103.019 177.365 113.545 169.562 121.216C167.092 125.355 160.729 130.714 156.7 139.143C151.663 149.678 121.507 159.967 106.595 162.666C92.7009 165.182 91.0198 151.733 87.6575 144.168Z" fill="#FFB198"/>
</svg>
